<svg width="85" height="24" viewBox="0 0 85 24" fill="none" xmlns="http://www.w3.org/2000/svg">
<g clip-path="url(#clip0_89_1022)">
<g clip-path="url(#clip1_89_1022)">
<path d="M72.3349 21.1L80.7599 12.7C80.8599 12.6 80.9306 12.4917 80.9719 12.375C81.0139 12.2584 81.0349 12.1334 81.0349 12C81.0349 11.8667 81.0139 11.7417 80.9719 11.625C80.9306 11.5084 80.8599 11.4 80.7599 11.3L72.3349 2.87502C72.1016 2.64169 71.8099 2.52502 71.4599 2.52502C71.1099 2.52502 70.8099 2.65002 70.5599 2.90002C70.3099 3.15002 70.1849 3.44169 70.1849 3.77502C70.1849 4.10836 70.3099 4.40002 70.5599 4.65002L77.9099 12L70.5599 19.35C70.3266 19.5834 70.2099 19.8707 70.2099 20.212C70.2099 20.554 70.3349 20.85 70.5849 21.1C70.8349 21.35 71.1266 21.475 71.4599 21.475C71.7932 21.475 72.0849 21.35 72.3349 21.1V21.1Z" fill="#E2E3EF"/>
</g>
</g>
<path d="M1 12H76.84" stroke="#E2E3EF" stroke-width="2" stroke-linecap="round"/>
<defs>
<clipPath id="clip0_89_1022">
<rect width="23.04" height="24" fill="white" transform="translate(61.96)"/>
</clipPath>
<clipPath id="clip1_89_1022">
<rect width="24" height="24" fill="white" transform="matrix(-1 0 0 1 81.46 0)"/>
</clipPath>
</defs>
</svg>
