<svg width="25" height="24" viewBox="0 0 25 24" fill="none" xmlns="http://www.w3.org/2000/svg">
<path d="M12.8167 21C17.7872 21 21.8167 16.9706 21.8167 12C21.8167 7.02944 17.7872 3 12.8167 3C7.84609 3 3.81665 7.02944 3.81665 12C3.81665 16.9706 7.84609 21 12.8167 21Z" stroke="#161617" stroke-width="2" stroke-linecap="round" stroke-linejoin="round"/>
<path d="M16.8167 4C16.8167 4.53043 16.6059 5.03914 16.2309 5.41421C15.8558 5.78929 15.3471 6 14.8167 6H14.3167C13.9188 6 13.5373 6.15804 13.256 6.43934C12.9747 6.72064 12.8167 7.10218 12.8167 7.5V8C12.8167 8.26522 12.7113 8.51957 12.5238 8.70711C12.3362 8.89464 12.0819 9 11.8167 9C11.5514 9 11.2971 9.10536 11.1095 9.29289C10.922 9.48043 10.8167 9.73478 10.8167 10V11C10.8167 11.5304 11.0274 12.0391 11.4024 12.4142C11.7775 12.7893 12.2862 13 12.8167 13H14.8167C15.3471 13 15.8558 13.2107 16.2309 13.5858C16.6059 13.9609 16.8167 14.4696 16.8167 15C16.8167 15.5304 17.0274 16.0391 17.4024 16.4142C17.7775 16.7893 18.2862 17 18.8167 17H19.8167M11.8167 21V18.5C11.8167 17.672 11.1317 17 10.3037 17C9.48965 17 8.81665 16.34 8.81665 15.526C8.81665 15.186 8.69865 14.856 8.48365 14.593L4.31665 9.5" stroke="#161617" stroke-width="2" stroke-linecap="round" stroke-linejoin="round"/>
</svg>
