<svg width="169" height="18" viewBox="0 0 169 18" fill="none" xmlns="http://www.w3.org/2000/svg">
<path d="M0.183594 17.4V0.600011H7.81559C9.63959 0.600011 11.2476 0.952011 12.6396 1.65601C14.0316 2.34401 15.1196 3.31201 15.9036 4.56001C16.6876 5.80801 17.0796 7.28801 17.0796 9.00001C17.0796 10.696 16.6876 12.176 15.9036 13.44C15.1196 14.688 14.0316 15.664 12.6396 16.368C11.2476 17.056 9.63959 17.4 7.81559 17.4H0.183594ZM4.07159 14.208H7.62359C8.74359 14.208 9.71159 14 10.5276 13.584C11.3596 13.152 11.9996 12.544 12.4476 11.76C12.9116 10.976 13.1436 10.056 13.1436 9.00001C13.1436 7.92801 12.9116 7.00801 12.4476 6.24001C11.9996 5.45601 11.3596 4.85601 10.5276 4.44001C9.71159 4.00801 8.74359 3.79201 7.62359 3.79201H4.07159V14.208Z" fill="#161617"/>
<path d="M21.1877 7.36801H29.2757V10.392H21.1877V7.36801ZM21.4757 14.28H30.6197V17.4H17.6117V0.600011H30.3077V3.72001H21.4757V14.28Z" fill="#161617"/>
<path d="M34.8893 7.36801H42.9773V10.392H34.8893V7.36801ZM35.1773 14.28H44.3213V17.4H31.3133V0.600011H44.0093V3.72001H35.1773V14.28Z" fill="#161617"/>
<path d="M45.0148 17.4V0.600011H52.2868C53.7908 0.600011 55.0868 0.848011 56.1748 1.34401C57.2628 1.82401 58.1028 2.52001 58.6948 3.43201C59.2868 4.34401 59.5828 5.43201 59.5828 6.69601C59.5828 7.94401 59.2868 9.02401 58.6948 9.93601C58.1028 10.848 57.2628 11.552 56.1748 12.048C55.0868 12.528 53.7908 12.768 52.2868 12.768H47.1748L48.9028 11.016V17.4H45.0148ZM48.9028 11.448L47.1748 9.60001H52.0708C53.2708 9.60001 54.1668 9.34401 54.7588 8.83201C55.3508 8.32001 55.6468 7.60801 55.6468 6.69601C55.6468 5.76801 55.3508 5.04801 54.7588 4.53601C54.1668 4.02401 53.2708 3.76801 52.0708 3.76801H47.1748L48.9028 1.92001V11.448Z" fill="#161617"/>
<path d="M64.5898 17.4V0.600011H72.7978C74.9098 0.600011 76.4938 1.00001 77.5498 1.80001C78.6218 2.60001 79.1578 3.65601 79.1578 4.96801C79.1578 5.84801 78.9418 6.61601 78.5098 7.27201C78.0778 7.91201 77.4858 8.40801 76.7338 8.76001C75.9818 9.11201 75.1178 9.28801 74.1418 9.28801L74.5978 8.30401C75.6538 8.30401 76.5898 8.48001 77.4058 8.83201C78.2218 9.16801 78.8538 9.67201 79.3018 10.344C79.7658 11.016 79.9978 11.84 79.9978 12.816C79.9978 14.256 79.4298 15.384 78.2938 16.2C77.1578 17 75.4858 17.4 73.2778 17.4H64.5898ZM68.4538 14.472H72.9898C73.9978 14.472 74.7578 14.312 75.2698 13.992C75.7978 13.656 76.0618 13.128 76.0618 12.408C76.0618 11.704 75.7978 11.184 75.2698 10.848C74.7578 10.496 73.9978 10.32 72.9898 10.32H68.1658V7.48801H72.3178C73.2618 7.48801 73.9818 7.32801 74.4778 7.00801C74.9898 6.67201 75.2458 6.16801 75.2458 5.49601C75.2458 4.84001 74.9898 4.35201 74.4778 4.03201C73.9818 3.69601 73.2618 3.52801 72.3178 3.52801H68.4538V14.472Z" fill="#161617"/>
<path d="M80.5414 17.4V0.600011H87.8134C89.3174 0.600011 90.6134 0.848011 91.7014 1.34401C92.7894 1.82401 93.6294 2.52001 94.2214 3.43201C94.8134 4.34401 95.1094 5.43201 95.1094 6.69601C95.1094 7.94401 94.8134 9.02401 94.2214 9.93601C93.6294 10.832 92.7894 11.52 91.7014 12C90.6134 12.48 89.3174 12.72 87.8134 12.72H82.7014L84.4294 11.016V17.4H80.5414ZM91.2214 17.4L87.0214 11.304H91.1734L95.4214 17.4H91.2214ZM84.4294 11.448L82.7014 9.62401H87.5974C88.7974 9.62401 89.6934 9.36801 90.2854 8.85601C90.8774 8.32801 91.1734 7.60801 91.1734 6.69601C91.1734 5.76801 90.8774 5.04801 90.2854 4.53601C89.6934 4.02401 88.7974 3.76801 87.5974 3.76801H82.7014L84.4294 1.92001V11.448Z" fill="#161617"/>
<path d="M95.7898 17.4V0.600011H99.6778V17.4H95.7898Z" fill="#161617"/>
<path d="M101.265 17.4V0.600011H108.897C110.721 0.600011 112.329 0.952011 113.721 1.65601C115.113 2.34401 116.201 3.31201 116.985 4.56001C117.769 5.80801 118.161 7.28801 118.161 9.00001C118.161 10.696 117.769 12.176 116.985 13.44C116.201 14.688 115.113 15.664 113.721 16.368C112.329 17.056 110.721 17.4 108.897 17.4H101.265ZM105.153 14.208H108.705C109.825 14.208 110.793 14 111.609 13.584C112.441 13.152 113.081 12.544 113.529 11.76C113.993 10.976 114.225 10.056 114.225 9.00001C114.225 7.92801 113.993 7.00801 113.529 6.24001C113.081 5.45601 112.441 4.85601 111.609 4.44001C110.793 4.00801 109.825 3.79201 108.705 3.79201H105.153V14.208Z" fill="#161617"/>
<path d="M126.805 17.688C125.477 17.688 124.253 17.48 123.133 17.064C122.029 16.632 121.061 16.024 120.229 15.24C119.413 14.456 118.773 13.536 118.309 12.48C117.861 11.424 117.637 10.264 117.637 9.00001C117.637 7.73601 117.861 6.57601 118.309 5.52001C118.773 4.46401 119.421 3.54401 120.253 2.76001C121.085 1.97601 122.061 1.37601 123.181 0.960011C124.301 0.528011 125.533 0.312012 126.877 0.312012C128.365 0.312012 129.701 0.560011 130.885 1.05601C132.085 1.55201 133.093 2.27201 133.909 3.21601L131.413 5.52001C130.805 4.88001 130.141 4.40801 129.421 4.10401C128.701 3.78401 127.917 3.62401 127.069 3.62401C126.253 3.62401 125.509 3.75201 124.837 4.00801C124.165 4.26401 123.581 4.63201 123.085 5.11201C122.605 5.59201 122.229 6.16001 121.957 6.81601C121.701 7.47201 121.573 8.20001 121.573 9.00001C121.573 9.78401 121.701 10.504 121.957 11.16C122.229 11.816 122.605 12.392 123.085 12.888C123.581 13.368 124.157 13.736 124.813 13.992C125.485 14.248 126.221 14.376 127.021 14.376C127.789 14.376 128.533 14.256 129.253 14.016C129.989 13.76 130.701 13.336 131.389 12.744L133.597 15.552C132.685 16.24 131.621 16.768 130.405 17.136C129.205 17.504 128.005 17.688 126.805 17.688ZM130.045 15.048V8.73601H133.597V15.552L130.045 15.048Z" fill="#161617"/>
<path d="M138.385 7.36801H146.473V10.392H138.385V7.36801ZM138.673 14.28H147.817V17.4H134.809V0.600011H147.505V3.72001H138.673V14.28Z" fill="#161617"/>
<path d="M161.417 9.22384C161.417 9.22384 160.415 9.72409 160.265 10.4703C159.923 12.1724 160.352 16.0761 160.352 16.0761L155.548 14.9587C155.548 14.9587 155.497 11.1134 158.807 9.99954C159.378 9.80749 161.417 9.22384 161.417 9.22384Z" fill="#1C45AE"/>
<path d="M161.417 9.22384C161.417 9.22384 159.378 9.80749 158.807 9.99954C155.497 11.1134 155.548 14.9587 155.548 14.9587L160.352 16.0761C160.352 16.0761 159.923 12.1724 160.265 10.4703C160.415 9.72409 161.417 9.22384 161.417 9.22384ZM161.417 9.22384L163.802 9.7023C164.798 9.90204 166.821 8.57511 167.511 7.82968M158.967 10.0238C158.967 10.0238 160.394 9.66536 161.767 8.87384C163.083 8.11502 166.483 4.92384 166.483 4.92384M162.438 8.22384L162.31 7.58593C161.993 6.01787 162.281 3.6975 163.117 2.33331M158.817 10.2738L159.507 7.82968C159.816 6.73452 159.442 5.56053 158.555 4.84659L157.722 4.1751C157.041 3.62647 156.658 2.38985 157.15 1.66665M153.483 4.47966L155.734 5.68124C156.581 6.16779 157.54 6.42384 158.517 6.42384H159.317M158.367 4.57384L158.525 4.47966C159.453 3.92866 160.495 2.36343 160.817 1.33331" stroke="#1C45AE" stroke-width="2" stroke-linecap="round"/>
<rect x="151.817" y="1" width="16" height="16" rx="8" stroke="#1C45AE" stroke-width="2"/>
</svg>
