<svg width="93" height="34" viewBox="0 0 93 34" fill="none" xmlns="http://www.w3.org/2000/svg">
<path d="M0 21.6471V11.5072H4.80771C5.95672 11.5072 6.96966 11.7196 7.84654 12.1445C8.72342 12.5598 9.40879 13.144 9.90266 13.8973C10.3965 14.6505 10.6435 15.5438 10.6435 16.5771C10.6435 17.6008 10.3965 18.494 9.90266 19.257C9.40879 20.0102 8.72342 20.5993 7.84654 21.0242C6.96966 21.4395 5.95672 21.6471 4.80771 21.6471H0ZM2.44921 19.7205H4.68676C5.39229 19.7205 6.00207 19.595 6.5161 19.3439C7.04022 19.0831 7.44338 18.7162 7.72559 18.243C8.01788 17.7698 8.16403 17.2145 8.16403 16.5771C8.16403 15.9301 8.01788 15.3748 7.72559 14.9113C7.44338 14.4381 7.04022 14.0759 6.5161 13.8249C6.00207 13.5641 5.39229 13.4338 4.68676 13.4338H2.44921V19.7205Z" fill="#F3F4F7"/>
<path d="M13.2313 15.5921H18.3263V17.4173H13.2313V15.5921ZM13.4128 19.764H19.1729V21.6471H10.9787V11.5072H18.9764V13.3903H13.4128V19.764Z" fill="#F3F4F7"/>
<path d="M21.8625 15.5921H26.9575V17.4173H21.8625V15.5921ZM22.0439 19.764H27.8041V21.6471H19.6098V11.5072H27.6076V13.3903H22.0439V19.764Z" fill="#F3F4F7"/>
<path d="M28.241 21.6471V11.5072H32.8219C33.7694 11.5072 34.5858 11.6569 35.2712 11.9562C35.9565 12.2459 36.4857 12.666 36.8586 13.2165C37.2315 13.7669 37.418 14.4236 37.418 15.1865C37.418 15.9398 37.2315 16.5916 36.8586 17.1421C36.4857 17.6925 35.9565 18.1174 35.2712 18.4168C34.5858 18.7065 33.7694 18.8514 32.8219 18.8514H29.6017L30.6902 17.7939V21.6471H28.241ZM30.6902 18.0547L29.6017 16.9393H32.6859C33.4418 16.9393 34.0062 16.7848 34.3792 16.4757C34.7521 16.1667 34.9385 15.737 34.9385 15.1865C34.9385 14.6264 34.7521 14.1918 34.3792 13.8828C34.0062 13.5738 33.4418 13.4193 32.6859 13.4193H29.6017L30.6902 12.3039V18.0547Z" fill="#F3F4F7"/>
<path d="M40.5721 21.6471V11.5072H45.7427C47.0731 11.5072 48.0709 11.7486 48.7361 12.2314C49.4114 12.7143 49.7491 13.3517 49.7491 14.1435C49.7491 14.6747 49.613 15.1382 49.3409 15.5342C49.0687 15.9204 48.6958 16.2198 48.2221 16.4323C47.7484 16.6447 47.2041 16.751 46.5893 16.751L46.8765 16.157C47.5418 16.157 48.1314 16.2633 48.6454 16.4757C49.1595 16.6785 49.5576 16.9827 49.8398 17.3883C50.1321 17.7939 50.2782 18.2913 50.2782 18.8803C50.2782 19.7495 49.9204 20.4303 49.2048 20.9228C48.4892 21.4057 47.4359 21.6471 46.045 21.6471H40.5721ZM43.0062 19.8798H45.8636C46.4986 19.8798 46.9773 19.7833 47.2999 19.5901C47.6325 19.3873 47.7988 19.0686 47.7988 18.6341C47.7988 18.2092 47.6325 17.8953 47.2999 17.6925C46.9773 17.4801 46.4986 17.3738 45.8636 17.3738H42.8248V15.6645H45.4403C46.0349 15.6645 46.4885 15.568 46.801 15.3748C47.1235 15.172 47.2847 14.8678 47.2847 14.4622C47.2847 14.0663 47.1235 13.7717 46.801 13.5786C46.4885 13.3758 46.0349 13.2744 45.4403 13.2744H43.0062V19.8798Z" fill="#F3F4F7"/>
<path d="M50.6206 21.6471V11.5072H55.2016C56.149 11.5072 56.9654 11.6569 57.6508 11.9562C58.3361 12.2459 58.8653 12.666 59.2382 13.2165C59.6111 13.7669 59.7976 14.4236 59.7976 15.1865C59.7976 15.9398 59.6111 16.5916 59.2382 17.1421C58.8653 17.6829 58.3361 18.0981 57.6508 18.3878C56.9654 18.6775 56.149 18.8224 55.2016 18.8224H51.9813L53.0698 17.7939V21.6471H50.6206ZM57.3484 21.6471L54.7027 17.9677H57.3182L59.9941 21.6471H57.3484ZM53.0698 18.0547L51.9813 16.9537H55.0655C55.8214 16.9537 56.3859 16.7992 56.7588 16.4902C57.1317 16.1715 57.3182 15.737 57.3182 15.1865C57.3182 14.6264 57.1317 14.1918 56.7588 13.8828C56.3859 13.5738 55.8214 13.4193 55.0655 13.4193H51.9813L53.0698 12.3039V18.0547Z" fill="#F3F4F7"/>
<path d="M60.2262 21.6471V11.5072H62.6754V21.6471H60.2262Z" fill="#F3F4F7"/>
<path d="M63.6752 21.6471V11.5072H68.4829C69.6319 11.5072 70.6448 11.7196 71.5217 12.1445C72.3986 12.5598 73.084 13.144 73.5778 13.8973C74.0717 14.6505 74.3186 15.5438 74.3186 16.5771C74.3186 17.6008 74.0717 18.494 73.5778 19.257C73.084 20.0102 72.3986 20.5993 71.5217 21.0242C70.6448 21.4395 69.6319 21.6471 68.4829 21.6471H63.6752ZM66.1244 19.7205H68.3619C69.0675 19.7205 69.6772 19.595 70.1913 19.3439C70.7154 19.0831 71.1185 18.7162 71.4008 18.243C71.6931 17.7698 71.8392 17.2145 71.8392 16.5771C71.8392 15.9301 71.6931 15.3748 71.4008 14.9113C71.1185 14.4381 70.7154 14.0759 70.1913 13.8249C69.6772 13.5641 69.0675 13.4338 68.3619 13.4338H66.1244V19.7205Z" fill="#F3F4F7"/>
<path d="M79.7639 21.8209C78.9274 21.8209 78.1563 21.6954 77.4508 21.4443C76.7553 21.1835 76.1456 20.8166 75.6214 20.3434C75.1074 19.8702 74.7042 19.3149 74.4119 18.6775C74.1297 18.0402 73.9886 17.34 73.9886 16.5771C73.9886 15.8142 74.1297 15.1141 74.4119 14.4767C74.7042 13.8393 75.1124 13.2841 75.6366 12.8109C76.1607 12.3377 76.7755 11.9755 77.481 11.7245C78.1866 11.4637 78.9626 11.3333 79.8093 11.3333C80.7466 11.3333 81.5882 11.483 82.3341 11.7824C83.09 12.0818 83.725 12.5163 84.239 13.0861L82.6667 14.4767C82.2837 14.0904 81.8654 13.8055 81.4119 13.6221C80.9583 13.4289 80.4644 13.3324 79.9302 13.3324C79.4162 13.3324 78.9475 13.4096 78.5242 13.5641C78.1009 13.7186 77.733 13.9407 77.4205 14.2305C77.1182 14.5202 76.8813 14.863 76.71 15.2589C76.5487 15.6549 76.4681 16.0943 76.4681 16.5771C76.4681 17.0503 76.5487 17.4849 76.71 17.8808C76.8813 18.2768 77.1182 18.6244 77.4205 18.9238C77.733 19.2135 78.0958 19.4356 78.5091 19.5901C78.9324 19.7446 79.396 19.8219 79.9 19.8219C80.3838 19.8219 80.8525 19.7495 81.306 19.6046C81.7697 19.4501 82.2182 19.1942 82.6516 18.8369L84.0425 20.5317C83.468 20.9469 82.7977 21.2656 82.0317 21.4877C81.2758 21.7098 80.5199 21.8209 79.7639 21.8209ZM81.8049 20.2275V16.4178H84.0425V20.5317L81.8049 20.2275Z" fill="#F3F4F7"/>
<path d="M87.0584 15.5921H92.1534V17.4173H87.0584V15.5921ZM87.2398 19.764H93V21.6471H84.8057V11.5072H92.8035V13.3903H87.2398V19.764Z" fill="#F3F4F7"/>
</svg>
