<svg width="62" height="8" viewBox="0 0 62 8" fill="none" xmlns="http://www.w3.org/2000/svg">
<path d="M0 7.28028V0.122701H3.20514C3.97115 0.122701 4.64644 0.27267 5.23103 0.572607C5.81561 0.865726 6.27253 1.27814 6.60178 1.80985C6.93103 2.34155 7.09565 2.9721 7.09565 3.70149C7.09565 4.42407 6.93103 5.05462 6.60178 5.59314C6.27253 6.12485 5.81561 6.54067 5.23103 6.8406C4.64644 7.13372 3.97115 7.28028 3.20514 7.28028H0ZM1.63281 5.92034H3.1245C3.59486 5.92034 4.00138 5.83173 4.34407 5.65449C4.69348 5.47044 4.96225 5.2114 5.15039 4.87738C5.34526 4.54336 5.44269 4.1514 5.44269 3.70149C5.44269 3.24477 5.34526 2.85281 5.15039 2.5256C4.96225 2.19158 4.69348 1.93596 4.34407 1.75872C4.00138 1.57467 3.59486 1.48264 3.1245 1.48264H1.63281V5.92034Z" fill="#161617"/>
<path d="M8.8209 3.00618H12.2175V4.29455H8.8209V3.00618ZM8.94185 5.95102H12.782V7.28028H7.31912V0.122701H12.6509V1.45197H8.94185V5.95102Z" fill="#161617"/>
<path d="M14.575 3.00618H17.9717V4.29455H14.575V3.00618ZM14.696 5.95102H18.5361V7.28028H13.0732V0.122701H18.4051V1.45197H14.696V5.95102Z" fill="#161617"/>
<path d="M18.8273 7.28028V0.122701H21.8813C22.5129 0.122701 23.0572 0.228361 23.5141 0.43968C23.971 0.644182 24.3238 0.94071 24.5724 1.32927C24.821 1.71782 24.9453 2.18136 24.9453 2.71988C24.9453 3.25159 24.821 3.71172 24.5724 4.10027C24.3238 4.48883 23.971 4.78876 23.5141 5.00008C23.0572 5.20458 22.5129 5.30684 21.8813 5.30684H19.7345L20.4602 4.5604V7.28028H18.8273ZM20.4602 4.74445L19.7345 3.95712H21.7906C22.2945 3.95712 22.6708 3.84805 22.9194 3.62992C23.1681 3.41178 23.2924 3.10844 23.2924 2.71988C23.2924 2.32451 23.1681 2.01776 22.9194 1.79962C22.6708 1.58148 22.2945 1.47242 21.7906 1.47242H19.7345L20.4602 0.685083V4.74445Z" fill="#161617"/>
<path d="M27.0481 7.28028V0.122701H30.4951C31.3821 0.122701 32.0473 0.29312 32.4908 0.633957C32.941 0.974794 33.1661 1.4247 33.1661 1.98367C33.1661 2.35859 33.0753 2.6858 32.8939 2.96528C32.7125 3.23795 32.4639 3.44927 32.1481 3.59924C31.8323 3.74921 31.4694 3.82419 31.0595 3.82419L31.251 3.40496C31.6945 3.40496 32.0876 3.47995 32.4303 3.62992C32.773 3.77307 33.0384 3.9878 33.2265 4.2741C33.4214 4.5604 33.5188 4.91146 33.5188 5.32729C33.5188 5.94079 33.2803 6.42137 32.8032 6.76903C32.3261 7.10987 31.624 7.28028 30.6967 7.28028H27.0481ZM28.6708 6.03282H30.5757C30.9991 6.03282 31.3182 5.96465 31.5332 5.82832C31.755 5.68517 31.8659 5.46021 31.8659 5.15346C31.8659 4.85352 31.755 4.63198 31.5332 4.48883C31.3182 4.33886 30.9991 4.26387 30.5757 4.26387H28.5498V3.05731H30.2935C30.69 3.05731 30.9923 2.98914 31.2006 2.85281C31.4157 2.70966 31.5232 2.49493 31.5232 2.20863C31.5232 1.92914 31.4157 1.72123 31.2006 1.58489C30.9923 1.44174 30.69 1.37017 30.2935 1.37017H28.6708V6.03282Z" fill="#161617"/>
<path d="M33.7471 7.28028V0.122701H36.801C37.4327 0.122701 37.9769 0.228361 38.4339 0.43968C38.8908 0.644182 39.2435 0.94071 39.4921 1.32927C39.7408 1.71782 39.8651 2.18136 39.8651 2.71988C39.8651 3.25159 39.7408 3.71172 39.4921 4.10027C39.2435 4.48201 38.8908 4.77513 38.4339 4.97963C37.9769 5.18413 37.4327 5.28639 36.801 5.28639H34.6542L35.3799 4.5604V7.28028H33.7471ZM38.2323 7.28028L36.4684 4.6831H38.2121L39.9961 7.28028H38.2323ZM35.3799 4.74445L34.6542 3.96735H36.7103C37.2143 3.96735 37.5906 3.85828 37.8392 3.64014C38.0878 3.41519 38.2121 3.10844 38.2121 2.71988C38.2121 2.32451 38.0878 2.01776 37.8392 1.79962C37.5906 1.58148 37.2143 1.47242 36.7103 1.47242H34.6542L35.3799 0.685083V4.74445Z" fill="#161617"/>
<path d="M40.1508 7.28028V0.122701H41.7836V7.28028H40.1508Z" fill="#161617"/>
<path d="M42.4501 7.28028V0.122701H45.6553C46.4213 0.122701 47.0966 0.27267 47.6811 0.572607C48.2657 0.865726 48.7226 1.27814 49.0519 1.80985C49.3811 2.34155 49.5458 2.9721 49.5458 3.70149C49.5458 4.42407 49.3811 5.05462 49.0519 5.59314C48.7226 6.12485 48.2657 6.54067 47.6811 6.8406C47.0966 7.13372 46.4213 7.28028 45.6553 7.28028H42.4501ZM44.0829 5.92034H45.5746C46.045 5.92034 46.4515 5.83173 46.7942 5.65449C47.1436 5.47044 47.4124 5.2114 47.6005 4.87738C47.7954 4.54336 47.8928 4.1514 47.8928 3.70149C47.8928 3.24477 47.7954 2.85281 47.6005 2.5256C47.4124 2.19158 47.1436 1.93596 46.7942 1.75872C46.4515 1.57467 46.045 1.48264 45.5746 1.48264H44.0829V5.92034Z" fill="#161617"/>
<path d="M53.176 7.40298C52.6182 7.40298 52.1042 7.31437 51.6339 7.13713C51.1702 6.95308 50.7637 6.69404 50.4143 6.36002C50.0716 6.026 49.8028 5.63404 49.608 5.18413C49.4198 4.73423 49.3258 4.24002 49.3258 3.70149C49.3258 3.16297 49.4198 2.66876 49.608 2.21885C49.8028 1.76894 50.075 1.37698 50.4244 1.04296C50.7738 0.708941 51.1837 0.453313 51.654 0.276078C52.1244 0.0920259 52.6418 0 53.2062 0C53.8311 0 54.3922 0.105659 54.8894 0.316978C55.3933 0.528297 55.8167 0.835051 56.1594 1.23724L55.1111 2.21885C54.8558 1.94618 54.5769 1.74509 54.2746 1.61557C53.9722 1.47923 53.6429 1.41107 53.2868 1.41107C52.9441 1.41107 52.6317 1.4656 52.3495 1.57467C52.0673 1.68374 51.822 1.84052 51.6137 2.04502C51.4121 2.24953 51.2542 2.49152 51.14 2.77101C51.0325 3.05049 50.9787 3.36066 50.9787 3.70149C50.9787 4.03551 51.0325 4.34227 51.14 4.62175C51.2542 4.90124 51.4121 5.14664 51.6137 5.35796C51.822 5.56246 52.0639 5.71925 52.3394 5.82832C52.6216 5.93738 52.9307 5.99192 53.2667 5.99192C53.5892 5.99192 53.9016 5.94079 54.204 5.83854C54.5131 5.72947 54.8121 5.54883 55.1011 5.29661L56.0283 6.49295C55.6453 6.78607 55.1985 7.01102 54.6878 7.16781C54.1839 7.32459 53.6799 7.40298 53.176 7.40298ZM54.5366 6.27822V3.58902H56.0283V6.49295L54.5366 6.27822Z" fill="#161617"/>
<path d="M58.0389 3.00618H61.4356V4.29455H58.0389V3.00618ZM58.1599 5.95102H62V7.28028H56.5372V0.122701H61.869V1.45197H58.1599V5.95102Z" fill="#161617"/>
</svg>
